<?xml version="1.0" standalone="no"?>
<!DOCTYPE svg PUBLIC "-//W3C//DTD SVG 20010904//EN"
 "http://www.w3.org/TR/2001/REC-SVG-20010904/DTD/svg10.dtd">
<svg version="1.0" xmlns="http://www.w3.org/2000/svg"
 width="260.000000pt" height="260.000000pt" viewBox="0 0 260.000000 260.000000"
 preserveAspectRatio="xMidYMid meet">
<metadata>
Created by potrace 1.11, written by Peter Selinger 2001-2013
</metadata>
<g transform="translate(0.000000,260.000000) scale(0.100000,-0.100000)"
fill="#000000" stroke="none">
<path d="M1348 2082 l-98 -3 0 -729 0 -729 575 0 c316 1 575 4 576 8 1 3 2
329 3 725 1 491 -2 720 -9 723 -13 4 -910 9 -1047 5z m663 -93 c72 -11 163
-41 228 -73 28 -15 51 -28 51 -30 0 -4 -27 -72 -40 -101 -5 -11 -28 -66 -51
-123 -23 -57 -45 -99 -48 -94 -13 21 -120 72 -176 85 -102 23 -178 -7 -160
-62 8 -26 78 -57 180 -81 111 -26 168 -53 221 -107 133 -136 115 -401 -39
-554 -59 -59 -113 -91 -202 -120 -92 -31 -264 -33 -375 -5 -106 27 -280 100
-280 118 0 15 130 338 136 338 2 0 20 -12 41 -26 95 -65 205 -105 272 -99 70
6 104 61 62 99 -18 17 -86 41 -141 51 -122 22 -231 97 -275 191 -49 104 -40
268 22 374 60 103 175 185 302 214 65 16 192 18 272 5z"/>
<path d="M1819 1978 c-258 -24 -434 -215 -416 -454 7 -99 47 -177 120 -234 16
-12 15 -9 -3 23 -99 167 -32 417 141 527 140 90 346 108 532 46 80 -27 98 -17
30 18 -114 57 -271 86 -404 74z"/>
<path d="M1884 1511 c14 -21 88 -53 181 -76 50 -12 102 -28 116 -34 18 -9 16
-5 -10 18 -37 33 -91 55 -186 76 -33 8 -71 17 -84 21 -17 5 -22 4 -17 -5z"/>
<path d="M1453 1133 c-4 -10 -30 -76 -59 -147 -29 -71 -51 -133 -48 -138 8
-13 64 -39 72 -34 5 3 32 66 62 140 29 75 57 136 63 136 5 0 21 -8 35 -19 83
-58 218 -102 283 -93 39 6 79 45 79 77 0 24 -41 75 -61 75 -4 0 -10 -13 -14
-28 -20 -94 -213 -79 -367 29 -32 23 -37 23 -45 2z"/>
<path d="M89 2072 c-5 -39 -2 -1427 3 -1435 5 -9 143 -12 518 -12 l510 -1 1
48 c0 26 0 91 0 143 0 52 0 119 0 149 l-1 55 -235 -1 c-130 0 -238 2 -241 4
-5 5 -7 69 -5 128 l1 25 213 0 212 0 0 180 0 180 -212 3 -213 2 -1 30 c0 17
-1 45 -1 63 -1 19 1 38 4 43 4 5 106 9 237 9 l231 -1 -2 196 -3 195 -507 2
c-280 0 -508 -2 -509 -5z"/>
<path d="M1129 2052 c0 -4 -1 -92 -2 -196 l-2 -190 -232 1 c-128 0 -234 -3
-234 -6 -8 -40 -3 -93 8 -100 17 -9 73 -2 73 10 0 5 105 9 235 9 181 0 235 3
236 13 0 6 1 94 1 195 l0 182 -41 45 c-23 25 -41 41 -42 37z"/>
<path d="M2421 2043 c1 -5 1 -330 0 -723 l-1 -715 -575 0 c-316 0 -575 -2
-575 -5 0 -3 17 -23 38 -43 l38 -37 582 0 582 0 0 728 0 728 -38 37 c-36 36
-53 45 -51 30z"/>
<path d="M1084 1344 c1 -91 -2 -170 -5 -175 -3 -6 -97 -10 -215 -10 l-209 0 0
-60 c0 -32 2 -59 5 -60 27 -4 71 -4 77 0 5 3 8 13 8 21 0 13 31 15 213 15
l212 0 0 180 0 181 -38 37 c-21 20 -40 37 -43 37 -3 0 -5 -75 -5 -166z"/>
<path d="M1138 803 l-3 -197 -505 -2 c-278 0 -508 -2 -512 -2 -4 -1 12 -20 35
-41 l42 -39 515 1 515 2 0 194 1 194 -43 43 -43 44 -2 -197z"/>
</g>
</svg>
